# xmcd CD database file
#
# Track frame offsets:
#	150
#	11322
#	33449
#	81274
#	90648
#	155939
#	188672
#	244531
#	255454
#
# Disc length: 3918 seconds
#
# Revision: 7
# Processed by: cddbd v1.5.2PL0 Copyright (c) Steve Scherf et al.
# Submitted via: CDex 1.51
#
DISCID=630f4c09
DTITLE=Santana - Lo Mejor de Santana
DYEAR=2000
DGENRE=Blues
TTITLE0=Acapulco Sunrise
TTITLE1=Soul Sacrifice
TTITLE2=Fried Neckbones And Home Fries
TTITLE3=Let's Get Ourseves Together
TTITLE4=Jin-Go-Lo-Ba
TTITLE5=As The Years Go By
TTITLE6=La Puesta Del Sol
TTITLE7=Coconut Grove
TTITLE8=Jam In E
EXTD=YEAR: 2000
EXTT0=
EXTT1=
EXTT2=
EXTT3=
EXTT4=
EXTT5=
EXTT6=
EXTT7=
EXTT8=
PLAYORDER=
